<svg data-noselect="" viewBox="0 0 343 321" width="343" height="321" preserveAspectRatio="none" version="1.1" xmlns="http://www.w3.org/2000/svg" style="background: rgba(255, 255, 255, 0);"><defs></defs> <g id="shape_znyCyXZsV9" transform="translate(30,30) rotate(0,141.5,113) scale(1,1)" filter="" style="cursor: move; opacity: 1;"><g><rect fill="rgba(0,0,0,0)" width="303" height="246" x="-10" y="-10"></rect><svg version="1.1" id="图层_1" xmlns="http://www.w3.org/2000/svg" xmlns:xlink="http://www.w3.org/1999/xlink" x="0px" y="0px" width="283" height="226" viewBox="0 0 283.46 226.77" style="enable-background:new 0 0 283.46 226.77;" xml:space="preserve" preserveAspectRatio="none" data-parent="shape_znyCyXZsV9">
<g>
	<linearGradient id="SVGID_1_" gradientUnits="userSpaceOnUse" x1="162.9283" y1="88.0318" x2="138.8039" y2="124.4751">
		<stop offset="0" style="stop-color:#B7CD40"></stop>
		<stop offset="0.2785" style="stop-color:#B1C840"></stop>
		<stop offset="0.6726" style="stop-color:#A2B83F"></stop>
		<stop offset="1" style="stop-color:#92A73E"></stop>
	</linearGradient>
	<path style="fill:url(#SVGID_1_);" d="M129.119,126.467l29.84-54.62v38.565c0,0,0.7,16.491-16.49,16.491
		C125.281,126.903,129.119,126.467,129.119,126.467z"></path>
	<linearGradient id="SVGID_2_" gradientUnits="userSpaceOnUse" x1="133.0032" y1="155.1371" x2="167.3934" y2="137.4287">
		<stop offset="0" style="stop-color:#28569E"></stop>
		<stop offset="1" style="stop-color:#34B5B5"></stop>
	</linearGradient>
	<path style="fill:url(#SVGID_2_);" d="M128.767,128.522v15.913c0,0-0.278,10.051,10.051,10.051c10.33,0,51.371,0,51.371,0
		L128.767,128.522z"></path>
	<linearGradient id="SVGID_3_" gradientUnits="userSpaceOnUse" x1="93.5306" y1="104.1879" x2="112.864" y2="118.9023">
		<stop offset="0" style="stop-color:#28569E"></stop>
		<stop offset="1" style="stop-color:#34B5B5"></stop>
	</linearGradient>
	<path style="fill:url(#SVGID_3_);" d="M110.373,96.694c-16.562,0-16.562,0-16.562,0l0.005,0.013c0,0,9.331,0.891,9.331,16.549
		c0,15.658,0,23.187,0,23.187l23.788,17.765v-40.349C126.935,113.858,126.935,96.694,110.373,96.694z M113.651,107.007
		c-1.701,0-3.08-1.379-3.08-3.08c0-1.701,1.378-3.08,3.08-3.08c1.701,0,3.08,1.379,3.08,3.08
		C116.731,105.628,115.353,107.007,113.651,107.007z"></path>
	<linearGradient id="SVGID_4_" gradientUnits="userSpaceOnUse" x1="132.2303" y1="146.8238" x2="106.5661" y2="109.6958">
		<stop offset="0.2671" style="stop-color:#E66A2B"></stop>
		<stop offset="0.5211" style="stop-color:#DC2E80"></stop>
		<stop offset="0.5792" style="stop-color:#D63081"></stop>
		<stop offset="0.683" style="stop-color:#C23383"></stop>
		<stop offset="0.8205" style="stop-color:#A03888"></stop>
		<stop offset="0.9849" style="stop-color:#683A8D"></stop>
		<stop offset="1" style="stop-color:#623A8E"></stop>
	</linearGradient>
	<path style="fill:url(#SVGID_4_);" d="M111.428,96.741c0,0,12.662,1.541,6.844,13.004c-5.818,11.463-15.125,26.697-15.125,26.697
		l23.788,17.765v-42.067C126.935,112.141,126.142,96.741,111.428,96.741z"></path>
</g>
</svg></g> <!----></g><g id="shapge_We7sG1lk4K" transform="translate(127.5,262) rotate(0,44,14.5) scale(1,1)" filter="" style="cursor: move; opacity: 1;"><g><svg xmlns="http://www.w3.org/2000/svg" version="1.1" xmlns:xlink="http://www.w3.org/1999/xlink" overflow="hidden" style="top:0; left: 0" width="138.10200000000003" height="29" viewBox="0 0 138.10200000000003 29" preserveAspectRatio="none" data-parent="shapge_We7sG1lk4K"><rect fill="rgba(0,0,0,0)" width="138.10200000000003" height="29"></rect> <rect opacity="0"></rect><g transform="translate(0 0)" data-width="88.10200000000002"><path fill="#006986" d="M5.60 0L2.90 0L2.90-21.26L5.60-21.26L5.60-10.59L5.68-10.59L14.56-21.26L17.57-21.26L10.93-13.17L18.62 0L15.60 0L9.25-11.08L5.60-6.73L5.60 0Z" transform="translate(0 25.52)"></path><path fill="#006986" d="M9.02 0.38L9.02 0.38L9.02 0.38Q6.93 0.38 5.22-0.59L5.22-0.59L5.22-0.59Q3.51-1.57 2.49-3.42L2.49-3.42L2.49-3.42Q1.48-5.28 1.48-7.86L1.48-7.86L1.48-7.86Q1.48-10.41 2.49-12.27L2.49-12.27L2.49-12.27Q3.51-14.12 5.13-15.14L5.13-15.14L5.13-15.14Q6.76-16.15 8.58-16.15L8.58-16.15L8.58-16.15Q11.60-16.15 13.22-14.14L13.22-14.14L13.22-14.14Q14.85-12.12 14.85-8.76L14.85-8.76L14.85-8.76Q14.85-7.89 14.73-7.25L14.73-7.25L4.12-7.25L4.12-7.25Q4.29-4.70 5.70-3.22L5.70-3.22L5.70-3.22Q7.11-1.74 9.34-1.74L9.34-1.74L9.34-1.74Q10.50-1.74 11.46-2.07L11.46-2.07L11.46-2.07Q12.41-2.41 13.28-2.99L13.28-2.99L14.24-1.25L14.24-1.25Q13.20-0.55 11.92-0.09L11.92-0.09L11.92-0.09Q10.64 0.38 9.02 0.38ZM4.09-9.13L4.09-9.13L12.53-9.13L12.53-9.13Q12.53-13.92 8.61-14.04L8.61-14.04L8.61-14.04Q6.93-14.04 5.66-12.76L5.66-12.76L5.66-12.76Q4.38-11.48 4.09-9.13Z" transform="translate(18.734 25.52)"></path><path fill="#006986" d="M5.31 0L2.67 0L2.67-15.75L4.84-15.75L5.08-12.88L5.16-12.88L5.16-12.88Q6.00-14.38 7.15-15.27L7.15-15.27L7.15-15.27Q8.29-16.15 9.63-16.15L9.63-16.15L9.63-16.15Q10.67-16.15 11.31-15.81L11.31-15.81L10.82-13.49L10.82-13.49Q10.44-13.63 10.11-13.69L10.11-13.69L10.11-13.69Q9.77-13.75 9.28-13.75L9.28-13.75L9.28-13.75Q8.29-13.75 7.21-12.93L7.21-12.93L7.21-12.93Q6.12-12.12 5.31-10.12L5.31-10.12L5.31 0Z" transform="translate(34.800000000000004 25.52)"></path><path fill="#006986" d="M5.31 0L2.67 0L2.67-15.75L4.84-15.75L5.08-13.49L5.16-13.49L5.16-13.49Q6.29-14.62 7.57-15.38L7.57-15.38L7.57-15.38Q8.85-16.15 10.44-16.15L10.44-16.15L10.44-16.15Q12.93-16.15 14.09-14.57L14.09-14.57L14.09-14.57Q15.25-12.99 15.25-9.98L15.25-9.98L15.25 0L12.62 0L12.62-9.63L12.62-9.63Q12.62-11.86 11.90-12.85L11.90-12.85L11.90-12.85Q11.19-13.83 9.63-13.83L9.63-13.83L9.63-13.83Q8.41-13.83 7.44-13.22L7.44-13.22L7.44-13.22Q6.47-12.62 5.31-11.43L5.31-11.43L5.31 0Z" transform="translate(46.05200000000001 25.52)"></path><path fill="#006986" d="M9.02 0.38L9.02 0.38L9.02 0.38Q6.93 0.38 5.22-0.59L5.22-0.59L5.22-0.59Q3.51-1.57 2.49-3.42L2.49-3.42L2.49-3.42Q1.48-5.28 1.48-7.86L1.48-7.86L1.48-7.86Q1.48-10.41 2.49-12.27L2.49-12.27L2.49-12.27Q3.51-14.12 5.13-15.14L5.13-15.14L5.13-15.14Q6.76-16.15 8.58-16.15L8.58-16.15L8.58-16.15Q11.60-16.15 13.22-14.14L13.22-14.14L13.22-14.14Q14.85-12.12 14.85-8.76L14.85-8.76L14.85-8.76Q14.85-7.89 14.73-7.25L14.73-7.25L4.12-7.25L4.12-7.25Q4.29-4.70 5.70-3.22L5.70-3.22L5.70-3.22Q7.11-1.74 9.34-1.74L9.34-1.74L9.34-1.74Q10.50-1.74 11.46-2.07L11.46-2.07L11.46-2.07Q12.41-2.41 13.28-2.99L13.28-2.99L14.24-1.25L14.24-1.25Q13.20-0.55 11.92-0.09L11.92-0.09L11.92-0.09Q10.64 0.38 9.02 0.38ZM4.09-9.13L4.09-9.13L12.53-9.13L12.53-9.13Q12.53-13.92 8.61-14.04L8.61-14.04L8.61-14.04Q6.93-14.04 5.66-12.76L5.66-12.76L5.66-12.76Q4.38-11.48 4.09-9.13Z" transform="translate(63.77100000000001 25.52)"></path><path fill="#006986" d="M5.45 0.38L5.45 0.38L5.45 0.38Q3.97 0.38 3.32-0.54L3.32-0.54L3.32-0.54Q2.67-1.45 2.67-3.13L2.67-3.13L2.67-23.08L5.31-23.08L5.31-2.96L5.31-2.96Q5.31-2.35 5.54-2.09L5.54-2.09L5.54-2.09Q5.77-1.83 6.06-1.83L6.06-1.83L6.06-1.83Q6.18-1.83 6.29-1.84L6.29-1.84L6.29-1.84Q6.41-1.86 6.61-1.89L6.61-1.89L6.99 0.15L6.99 0.15Q6.50 0.38 5.45 0.38Z" transform="translate(79.83700000000002 25.52)"></path></g></svg></g> <!----></g>  <!----></svg>